<svg viewBox="0 0 60 60" xmlns="http://www.w3.org/2000/svg" xml:space="preserve" style="fill-rule:evenodd;clip-rule:evenodd;stroke-linejoin:round;stroke-miterlimit:2">
  <path d="M60.043 15.09c0-8.277-6.721-14.998-14.999-14.998H15.047C6.769.092.049 6.813.049 15.09v29.997c0 8.278 6.72 14.999 14.998 14.999h29.997c8.278 0 14.999-6.721 14.999-14.999V15.09Z" style="fill:#f4f7fc"/>
  <path d="M.326-.784h.077L.695 0H.603L.509-.268H.211L.113 0H.026l.3-.784Zm.161.447L.366-.69l-.131.353h.252Z" style="fill:#264653;fill-rule:nonzero" transform="matrix(48 0 0 48 12.696 48.816)"/>
  <path d="m30.091 32.148 4.693 17.25h-9.386l4.693-17.25Z" style="fill:#f4f7fc" transform="matrix(2.48994 0 0 1.86968 -44.924 -35.447)"/>
</svg>